<svg xmlns="http://www.w3.org/2000/svg" xmlns:xlink="http://www.w3.org/1999/xlink" contentStyleType="text/css" height="1662px" preserveAspectRatio="none" style="width:2704px;height:1662px;background:#FFFFFF;" version="1.1" viewBox="0 0 2704 1662" width="2704px" zoomAndPan="magnify"><defs/><g><!--class Usuario--><a href="java:usuarios.Usuario" target="_top" title="java:usuarios.Usuario" xlink:actuate="onRequest" xlink:href="java:usuarios.Usuario" xlink:show="new" xlink:title="java:usuarios.Usuario" xlink:type="simple"><g id="elem_Usuario"><rect codeLine="1" fill="#F1F1F1" height="141.1055" id="Usuario" rx="2.5" ry="2.5" style="stroke:#181818;stroke-width:0.5;" width="292.9092" x="19" y="7"/><ellipse cx="137.084" cy="23" fill="#A9DCDF" rx="11" ry="11" style="stroke:#181818;stroke-width:1.0;"/><path d="M139.2715,24.7656 L135.1309,24.7656 L134.709,25.7969 L135.1309,25.7969 Q135.7402,25.7969 136.0059,26.0313 Q136.2715,26.2656 136.2715,26.6563 Q136.2715,27.0313 136.0059,27.2656 Q135.7402,27.5 135.1309,27.5 L132.834,27.5 Q132.2246,27.5 131.9746,27.2656 Q131.709,27.0313 131.709,26.6406 Q131.709,26.2656 131.9902,26.0313 Q132.2559,25.7813 132.8809,25.7969 L135.5527,19.1406 L134.4434,19.1406 Q133.834,19.1406 133.5684,18.9063 Q133.3027,18.6719 133.3027,18.2813 Q133.3027,17.9063 133.5684,17.6719 Q133.834,17.4375 134.4434,17.4375 L138.1152,17.4375 L141.5059,25.7969 Q142.0996,25.7969 142.2871,25.9375 Q142.6777,26.2031 142.6777,26.6563 Q142.6777,27.0313 142.4121,27.2656 Q142.1621,27.5 141.5527,27.5 L139.2559,27.5 Q138.6465,27.5 138.3809,27.2656 Q138.1152,27.0313 138.1152,26.6406 Q138.1152,26.2656 138.3809,26.0313 Q138.6465,25.7969 139.2559,25.7969 L139.6777,25.7969 L139.2715,24.7656 Z M138.5527,23.0625 L137.1934,19.6875 L135.8184,23.0625 L138.5527,23.0625 Z " fill="#000000"/><text fill="#000000" font-family="sans-serif" font-size="14" font-style="italic" lengthAdjust="spacing" textLength="48.2412" x="157.584" y="28.7969">Usuario</text><line style="stroke:#181818;stroke-width:0.5;" x1="20" x2="310.9092" y1="39" y2="39"/><rect fill="none" height="6" style="stroke:#C82930;stroke-width:1.0;" width="6" x="27" y="50.8105"/><text fill="#000000" font-family="sans-serif" font-size="14" lengthAdjust="spacing" textLength="70.0479" x="39" y="58.1074">dni: Integer</text><rect fill="none" height="6" style="stroke:#C82930;stroke-width:1.0;" width="6" x="27" y="69.4316"/><text fill="#000000" font-family="sans-serif" font-size="14" lengthAdjust="spacing" textLength="77.0342" x="39" y="76.7285">clave: String</text><line style="stroke:#181818;stroke-width:0.5;" x1="20" x2="310.9092" y1="84.2422" y2="84.2422"/><ellipse cx="30" cy="99.0527" fill="#84BE84" rx="3" ry="3" style="stroke:#038048;stroke-width:1.0;"/><text fill="#000000" font-family="sans-serif" font-size="14" lengthAdjust="spacing" textLength="266.9092" x="39" y="103.3496">&#171;create&#187;Usuario(dni: Integer, clave: String)</text><ellipse cx="30" cy="117.6738" fill="#84BE84" rx="3" ry="3" style="stroke:#038048;stroke-width:1.0;"/><text fill="#000000" font-family="sans-serif" font-size="14" lengthAdjust="spacing" textLength="101.1582" x="39" y="121.9707">getDni(): Integer</text><ellipse cx="30" cy="136.2949" fill="#84BE84" rx="3" ry="3" style="stroke:#038048;stroke-width:1.0;"/><text fill="#000000" font-family="sans-serif" font-size="14" lengthAdjust="spacing" textLength="108.9307" x="39" y="140.5918">getClave(): String</text></g></a><!--class Administrador--><a href="java:usuarios.Administrador" target="_top" title="java:usuarios.Administrador" xlink:actuate="onRequest" xlink:href="java:usuarios.Administrador" xlink:show="new" xlink:title="java:usuarios.Administrador" xlink:type="simple"><g id="elem_Administrador"><rect codeLine="10" fill="#F1F1F1" height="66.6211" id="Administrador" rx="2.5" ry="2.5" style="stroke:#181818;stroke-width:0.5;" width="276.5508" x="7" y="264.5"/><ellipse cx="97.8428" cy="280.5" fill="#ADD1B2" rx="11" ry="11" style="stroke:#181818;stroke-width:1.0;"/><path d="M100.6084,276.375 Q100.7646,276.1563 100.9521,276.0469 Q101.1396,275.9375 101.3584,275.9375 Q101.7334,275.9375 101.9678,276.2031 Q102.2021,276.4531 102.2021,277.0625 L102.2021,278.5156 Q102.2021,279.125 101.9678,279.3906 Q101.7334,279.6563 101.3584,279.6563 Q101.0146,279.6563 100.8115,279.4531 Q100.6084,279.2656 100.499,278.75 Q100.4521,278.3906 100.2646,278.2031 Q99.9365,277.8281 99.3271,277.6094 Q98.7178,277.3906 98.0928,277.3906 Q97.3271,277.3906 96.6865,277.7188 Q96.0615,278.0469 95.5615,278.7969 Q95.0771,279.5469 95.0771,280.5781 L95.0771,281.6719 Q95.0771,282.9063 95.9678,283.7344 Q96.8584,284.5469 98.4521,284.5469 Q99.3896,284.5469 100.0459,284.2969 Q100.4365,284.1406 100.8584,283.7031 Q101.124,283.4375 101.2646,283.3594 Q101.4209,283.2813 101.624,283.2813 Q101.9521,283.2813 102.2021,283.5469 Q102.4678,283.7969 102.4678,284.1406 Q102.4678,284.4844 102.124,284.8906 Q101.624,285.4688 100.8271,285.7969 Q99.749,286.25 98.4521,286.25 Q96.9365,286.25 95.7334,285.625 Q94.749,285.125 94.0615,284.0625 Q93.374,282.9844 93.374,281.7031 L93.374,280.5469 Q93.374,279.2188 93.9834,278.0781 Q94.6084,276.9219 95.7021,276.3125 Q96.7959,275.6875 98.0303,275.6875 Q98.7646,275.6875 99.4053,275.8594 Q100.0615,276.0156 100.6084,276.375 Z " fill="#000000"/><text fill="#000000" font-family="sans-serif" font-size="14" lengthAdjust="spacing" textLength="86.3652" x="118.3428" y="286.2969">Administrador</text><line style="stroke:#181818;stroke-width:0.5;" x1="8" x2="282.5508" y1="296.5" y2="296.5"/><line style="stroke:#181818;stroke-width:0.5;" x1="8" x2="282.5508" y1="304.5" y2="304.5"/><ellipse cx="18" cy="319.3105" fill="#84BE84" rx="3" ry="3" style="stroke:#038048;stroke-width:1.0;"/><text fill="#000000" font-family="sans-serif" font-size="14" lengthAdjust="spacing" textLength="250.5508" x="27" y="323.6074">Administrador(dni: Integer, clave: String)</text></g></a><!--class NoAdmin--><a href="java:usuarios.NoAdmin" target="_top" title="java:usuarios.NoAdmin" xlink:actuate="onRequest" xlink:href="java:usuarios.NoAdmin" xlink:show="new" xlink:title="java:usuarios.NoAdmin" xlink:type="simple"><g id="elem_NoAdmin"><rect codeLine="14" fill="#F1F1F1" height="178.3477" id="NoAdmin" rx="2.5" ry="2.5" style="stroke:#181818;stroke-width:0.5;" width="616.625" x="811" y="209"/><ellipse cx="1086.2729" cy="225" fill="#A9DCDF" rx="11" ry="11" style="stroke:#181818;stroke-width:1.0;"/><path d="M1088.4604,226.7656 L1084.3198,226.7656 L1083.8979,227.7969 L1084.3198,227.7969 Q1084.9292,227.7969 1085.1948,228.0313 Q1085.4604,228.2656 1085.4604,228.6563 Q1085.4604,229.0313 1085.1948,229.2656 Q1084.9292,229.5 1084.3198,229.5 L1082.0229,229.5 Q1081.4136,229.5 1081.1636,229.2656 Q1080.8979,229.0313 1080.8979,228.6406 Q1080.8979,228.2656 1081.1792,228.0313 Q1081.4448,227.7813 1082.0698,227.7969 L1084.7417,221.1406 L1083.6323,221.1406 Q1083.0229,221.1406 1082.7573,220.9063 Q1082.4917,220.6719 1082.4917,220.2813 Q1082.4917,219.9063 1082.7573,219.6719 Q1083.0229,219.4375 1083.6323,219.4375 L1087.3042,219.4375 L1090.6948,227.7969 Q1091.2886,227.7969 1091.4761,227.9375 Q1091.8667,228.2031 1091.8667,228.6563 Q1091.8667,229.0313 1091.6011,229.2656 Q1091.3511,229.5 1090.7417,229.5 L1088.4448,229.5 Q1087.8354,229.5 1087.5698,229.2656 Q1087.3042,229.0313 1087.3042,228.6406 Q1087.3042,228.2656 1087.5698,228.0313 Q1087.8354,227.7969 1088.4448,227.7969 L1088.8667,227.7969 L1088.4604,226.7656 Z M1087.7417,225.0625 L1086.3823,221.6875 L1085.0073,225.0625 L1087.7417,225.0625 Z " fill="#000000"/><text fill="#000000" font-family="sans-serif" font-size="14" font-style="italic" lengthAdjust="spacing" textLength="57.5791" x="1106.7729" y="230.7969">NoAdmin</text><line style="stroke:#181818;stroke-width:0.5;" x1="812" x2="1426.625" y1="241" y2="241"/><rect fill="none" height="6" style="stroke:#C82930;stroke-width:1.0;" width="6" x="819" y="252.8105"/><text fill="#000000" font-family="sans-serif" font-size="14" lengthAdjust="spacing" textLength="91.8203" x="831" y="260.1074">nombre: String</text><rect fill="none" height="6" style="stroke:#C82930;stroke-width:1.0;" width="6" x="819" y="271.4316"/><text fill="#000000" font-family="sans-serif" font-size="14" lengthAdjust="spacing" textLength="92.6133" x="831" y="278.7285">apellido: String</text><rect fill="none" height="6" style="stroke:#C82930;stroke-width:1.0;" width="6" x="819" y="290.0527"/><text fill="#000000" font-family="sans-serif" font-size="14" lengthAdjust="spacing" textLength="106.6064" x="831" y="297.3496">urlImagen: String</text><line style="stroke:#181818;stroke-width:0.5;" x1="812" x2="1426.625" y1="304.8633" y2="304.8633"/><ellipse cx="822" cy="319.6738" fill="#84BE84" rx="3" ry="3" style="stroke:#038048;stroke-width:1.0;"/><text fill="#000000" font-family="sans-serif" font-size="14" lengthAdjust="spacing" textLength="590.625" x="831" y="323.9707">&#171;create&#187;NoAdmin(dni: Integer, clave: String, nombre: String, apellido: String, urlImagen: String)</text><ellipse cx="822" cy="338.2949" fill="#84BE84" rx="3" ry="3" style="stroke:#038048;stroke-width:1.0;"/><text fill="#000000" font-family="sans-serif" font-size="14" lengthAdjust="spacing" textLength="122.9307" x="831" y="342.5918">getNombre(): String</text><ellipse cx="822" cy="356.916" fill="#84BE84" rx="3" ry="3" style="stroke:#038048;stroke-width:1.0;"/><text fill="#000000" font-family="sans-serif" font-size="14" lengthAdjust="spacing" textLength="122.9512" x="831" y="361.2129">getApellido(): String</text><ellipse cx="822" cy="375.5371" fill="#84BE84" rx="3" ry="3" style="stroke:#038048;stroke-width:1.0;"/><text fill="#000000" font-family="sans-serif" font-size="14" lengthAdjust="spacing" textLength="129.9307" x="831" y="379.834">getUrlImage(): String</text></g></a><!--class Turno--><a href="java:usuarios.Turno" target="_top" title="java:usuarios.Turno" xlink:actuate="onRequest" xlink:href="java:usuarios.Turno" xlink:show="new" xlink:title="java:usuarios.Turno" xlink:type="simple"><g id="elem_Turno"><rect codeLine="25" fill="#F1F1F1" height="85.2422" id="Turno" rx="2.5" ry="2.5" style="stroke:#181818;stroke-width:0.5;" width="71.8965" x="1602.5" y="742"/><ellipse cx="1618.9959" cy="758" fill="#EB937F" rx="11" ry="11" style="stroke:#181818;stroke-width:1.0;"/><path d="M1617.8553,758.7969 L1617.8553,761.2969 L1622.1834,761.2969 L1622.1834,760.375 Q1622.1834,759.7656 1622.4178,759.5 Q1622.6678,759.2344 1623.0428,759.2344 Q1623.4178,759.2344 1623.6521,759.5 Q1623.8865,759.7656 1623.8865,760.375 L1623.8865,763 L1615.8865,763 Q1615.2615,763 1614.9959,762.7656 Q1614.7459,762.5313 1614.7459,762.1406 Q1614.7459,761.7656 1615.0115,761.5313 Q1615.2771,761.2969 1615.8865,761.2969 L1616.1521,761.2969 L1616.1521,754.6406 L1615.8865,754.6406 Q1615.2615,754.6406 1614.9959,754.4063 Q1614.7459,754.1719 1614.7459,753.7813 Q1614.7459,753.4063 1614.9959,753.1719 Q1615.2615,752.9375 1615.8865,752.9375 L1623.5115,752.9375 L1623.5115,755.5313 Q1623.5115,756.1406 1623.2771,756.4063 Q1623.0584,756.6563 1622.6678,756.6563 Q1622.2928,756.6563 1622.0584,756.4063 Q1621.824,756.1406 1621.824,755.5313 L1621.824,754.6406 L1617.8553,754.6406 L1617.8553,757.0938 L1619.3396,757.0938 Q1619.3396,756.4375 1619.4646,756.25 Q1619.7303,755.8438 1620.199,755.8438 Q1620.574,755.8438 1620.8084,756.1094 Q1621.0428,756.3594 1621.0428,756.9688 L1621.0428,758.9375 Q1621.0428,759.4844 1620.9178,759.6719 Q1620.6521,760.0625 1620.199,760.0625 Q1619.7303,760.0625 1619.4646,759.6563 Q1619.3396,759.4688 1619.3396,758.7969 L1617.8553,758.7969 Z " fill="#000000"/><text fill="#000000" font-family="sans-serif" font-size="14" lengthAdjust="spacing" textLength="36.5723" x="1633.3283" y="763.7969">Turno</text><line style="stroke:#181818;stroke-width:0.5;" x1="1603.5" x2="1673.3965" y1="774" y2="774"/><text fill="#000000" font-family="sans-serif" font-size="14" lengthAdjust="spacing" textLength="59.8965" x="1608.5" y="793.1074">MA&#209;ANA</text><text fill="#000000" font-family="sans-serif" font-size="14" lengthAdjust="spacing" textLength="47.4482" x="1608.5" y="811.7285">TARDE</text><line style="stroke:#181818;stroke-width:0.5;" x1="1603.5" x2="1673.3965" y1="819.2422" y2="819.2422"/></g></a><!--class ResponsableDeTurno--><a href="java:usuarios.ResponsableDeTurno" target="_top" title="java:usuarios.ResponsableDeTurno" xlink:actuate="onRequest" xlink:href="java:usuarios.ResponsableDeTurno" xlink:show="new" xlink:title="java:usuarios.ResponsableDeTurno" xlink:type="simple"><g id="elem_ResponsableDeTurno"><rect codeLine="30" fill="#F1F1F1" height="85.2422" id="ResponsableDeTurno" rx="2.5" ry="2.5" style="stroke:#181818;stroke-width:0.5;" width="779.2793" x="1249" y="522"/><ellipse cx="1566.2935" cy="538" fill="#ADD1B2" rx="11" ry="11" style="stroke:#181818;stroke-width:1.0;"/><path d="M1569.0591,533.875 Q1569.2153,533.6563 1569.4028,533.5469 Q1569.5903,533.4375 1569.8091,533.4375 Q1570.1841,533.4375 1570.4185,533.7031 Q1570.6528,533.9531 1570.6528,534.5625 L1570.6528,536.0156 Q1570.6528,536.625 1570.4185,536.8906 Q1570.1841,537.1563 1569.8091,537.1563 Q1569.4653,537.1563 1569.2622,536.9531 Q1569.0591,536.7656 1568.9497,536.25 Q1568.9028,535.8906 1568.7153,535.7031 Q1568.3872,535.3281 1567.7778,535.1094 Q1567.1685,534.8906 1566.5435,534.8906 Q1565.7778,534.8906 1565.1372,535.2188 Q1564.5122,535.5469 1564.0122,536.2969 Q1563.5278,537.0469 1563.5278,538.0781 L1563.5278,539.1719 Q1563.5278,540.4063 1564.4185,541.2344 Q1565.3091,542.0469 1566.9028,542.0469 Q1567.8403,542.0469 1568.4966,541.7969 Q1568.8872,541.6406 1569.3091,541.2031 Q1569.5747,540.9375 1569.7153,540.8594 Q1569.8716,540.7813 1570.0747,540.7813 Q1570.4028,540.7813 1570.6528,541.0469 Q1570.9185,541.2969 1570.9185,541.6406 Q1570.9185,541.9844 1570.5747,542.3906 Q1570.0747,542.9688 1569.2778,543.2969 Q1568.1997,543.75 1566.9028,543.75 Q1565.3872,543.75 1564.1841,543.125 Q1563.1997,542.625 1562.5122,541.5625 Q1561.8247,540.4844 1561.8247,539.2031 L1561.8247,538.0469 Q1561.8247,536.7188 1562.4341,535.5781 Q1563.0591,534.4219 1564.1528,533.8125 Q1565.2466,533.1875 1566.481,533.1875 Q1567.2153,533.1875 1567.856,533.3594 Q1568.5122,533.5156 1569.0591,533.875 Z " fill="#000000"/><text fill="#000000" font-family="sans-serif" font-size="14" lengthAdjust="spacing" textLength="136.1924" x="1586.7935" y="543.7969">ResponsableDeTurno</text><line style="stroke:#181818;stroke-width:0.5;" x1="1250" x2="2027.2793" y1="554" y2="554"/><line style="stroke:#181818;stroke-width:0.5;" x1="1250" x2="2027.2793" y1="562" y2="562"/><ellipse cx="1260" cy="576.8105" fill="#84BE84" rx="3" ry="3" style="stroke:#038048;stroke-width:1.0;"/><text fill="#000000" font-family="sans-serif" font-size="14" lengthAdjust="spacing" textLength="753.2793" x="1269" y="581.1074">&#171;create&#187;ResponsableDeTurno(dni: Integer, clave: String, nombre: String, apellido: String, urlImagen: String, turno: Turno)</text><ellipse cx="1260" cy="595.4316" fill="#84BE84" rx="3" ry="3" style="stroke:#038048;stroke-width:1.0;"/><text fill="#000000" font-family="sans-serif" font-size="14" lengthAdjust="spacing" textLength="109.71" x="1269" y="599.7285">getTurno(): Turno</text></g></a><!--class Cliente--><a href="java:usuarios.Cliente" target="_top" title="java:usuarios.Cliente" xlink:actuate="onRequest" xlink:href="java:usuarios.Cliente" xlink:show="new" xlink:title="java:usuarios.Cliente" xlink:type="simple"><g id="elem_Cliente"><rect codeLine="36" fill="#F1F1F1" height="103.8633" id="Cliente" rx="2.5" ry="2.5" style="stroke:#181818;stroke-width:0.5;" width="688.2109" x="525.5" y="512.5"/><ellipse cx="843.5659" cy="528.5" fill="#ADD1B2" rx="11" ry="11" style="stroke:#181818;stroke-width:1.0;"/><path d="M846.3315,524.375 Q846.4878,524.1563 846.6753,524.0469 Q846.8628,523.9375 847.0815,523.9375 Q847.4565,523.9375 847.6909,524.2031 Q847.9253,524.4531 847.9253,525.0625 L847.9253,526.5156 Q847.9253,527.125 847.6909,527.3906 Q847.4565,527.6563 847.0815,527.6563 Q846.7378,527.6563 846.5347,527.4531 Q846.3315,527.2656 846.2222,526.75 Q846.1753,526.3906 845.9878,526.2031 Q845.6597,525.8281 845.0503,525.6094 Q844.4409,525.3906 843.8159,525.3906 Q843.0503,525.3906 842.4097,525.7188 Q841.7847,526.0469 841.2847,526.7969 Q840.8003,527.5469 840.8003,528.5781 L840.8003,529.6719 Q840.8003,530.9063 841.6909,531.7344 Q842.5815,532.5469 844.1753,532.5469 Q845.1128,532.5469 845.769,532.2969 Q846.1597,532.1406 846.5815,531.7031 Q846.8472,531.4375 846.9878,531.3594 Q847.144,531.2813 847.3472,531.2813 Q847.6753,531.2813 847.9253,531.5469 Q848.1909,531.7969 848.1909,532.1406 Q848.1909,532.4844 847.8472,532.8906 Q847.3472,533.4688 846.5503,533.7969 Q845.4722,534.25 844.1753,534.25 Q842.6597,534.25 841.4565,533.625 Q840.4722,533.125 839.7847,532.0625 Q839.0972,530.9844 839.0972,529.7031 L839.0972,528.5469 Q839.0972,527.2188 839.7065,526.0781 Q840.3315,524.9219 841.4253,524.3125 Q842.519,523.6875 843.7534,523.6875 Q844.4878,523.6875 845.1284,523.8594 Q845.7847,524.0156 846.3315,524.375 Z " fill="#000000"/><text fill="#000000" font-family="sans-serif" font-size="14" lengthAdjust="spacing" textLength="43.5791" x="864.0659" y="534.2969">Cliente</text><line style="stroke:#181818;stroke-width:0.5;" x1="526.5" x2="1212.7109" y1="544.5" y2="544.5"/><rect fill="none" height="6" style="stroke:#C82930;stroke-width:1.0;" width="6" x="533.5" y="556.3105"/><text fill="#000000" font-family="sans-serif" font-size="14" lengthAdjust="spacing" textLength="77.8066" x="545.5" y="563.6074">email: String</text><line style="stroke:#181818;stroke-width:0.5;" x1="526.5" x2="1212.7109" y1="571.1211" y2="571.1211"/><ellipse cx="536.5" cy="585.9316" fill="#84BE84" rx="3" ry="3" style="stroke:#038048;stroke-width:1.0;"/><text fill="#000000" font-family="sans-serif" font-size="14" lengthAdjust="spacing" textLength="662.2109" x="545.5" y="590.2285">&#171;create&#187;Cliente(dni: Integer, clave: String, nombre: String, apellido: String, urlImagen: String, email: String)</text><ellipse cx="536.5" cy="604.5527" fill="#84BE84" rx="3" ry="3" style="stroke:#038048;stroke-width:1.0;"/><text fill="#000000" font-family="sans-serif" font-size="14" lengthAdjust="spacing" textLength="108.1445" x="545.5" y="608.8496">getEmail(): String</text></g></a><!--class TipoSugerencia--><a href="java:sugerencias.TipoSugerencia" target="_top" title="java:sugerencias.TipoSugerencia" xlink:actuate="onRequest" xlink:href="java:sugerencias.TipoSugerencia" xlink:show="new" xlink:title="java:sugerencias.TipoSugerencia" xlink:type="simple"><g id="elem_TipoSugerencia"><rect codeLine="43" fill="#F1F1F1" height="122.4844" id="TipoSugerencia" rx="2.5" ry="2.5" style="stroke:#181818;stroke-width:0.5;" width="149.6689" x="340.5" y="503.5"/><ellipse cx="364.3233" cy="519.5" fill="#EB937F" rx="11" ry="11" style="stroke:#181818;stroke-width:1.0;"/><path d="M363.1827,520.2969 L363.1827,522.7969 L367.5108,522.7969 L367.5108,521.875 Q367.5108,521.2656 367.7452,521 Q367.9952,520.7344 368.3702,520.7344 Q368.7452,520.7344 368.9796,521 Q369.214,521.2656 369.214,521.875 L369.214,524.5 L361.214,524.5 Q360.589,524.5 360.3233,524.2656 Q360.0733,524.0313 360.0733,523.6406 Q360.0733,523.2656 360.339,523.0313 Q360.6046,522.7969 361.214,522.7969 L361.4796,522.7969 L361.4796,516.1406 L361.214,516.1406 Q360.589,516.1406 360.3233,515.9063 Q360.0733,515.6719 360.0733,515.2813 Q360.0733,514.9063 360.3233,514.6719 Q360.589,514.4375 361.214,514.4375 L368.839,514.4375 L368.839,517.0313 Q368.839,517.6406 368.6046,517.9063 Q368.3858,518.1563 367.9952,518.1563 Q367.6202,518.1563 367.3858,517.9063 Q367.1515,517.6406 367.1515,517.0313 L367.1515,516.1406 L363.1827,516.1406 L363.1827,518.5938 L364.6671,518.5938 Q364.6671,517.9375 364.7921,517.75 Q365.0577,517.3438 365.5265,517.3438 Q365.9015,517.3438 366.1358,517.6094 Q366.3702,517.8594 366.3702,518.4688 L366.3702,520.4375 Q366.3702,520.9844 366.2452,521.1719 Q365.9796,521.5625 365.5265,521.5625 Q365.0577,521.5625 364.7921,521.1563 Q364.6671,520.9688 364.6671,520.2969 L363.1827,520.2969 Z " fill="#000000"/><text fill="#000000" font-family="sans-serif" font-size="14" lengthAdjust="spacing" textLength="98.0615" x="380.2841" y="525.2969">TipoSugerencia</text><line style="stroke:#181818;stroke-width:0.5;" x1="341.5" x2="489.1689" y1="535.5" y2="535.5"/><text fill="#000000" font-family="sans-serif" font-size="14" lengthAdjust="spacing" textLength="80.9033" x="346.5" y="554.6074">ALIMENTOS</text><text fill="#000000" font-family="sans-serif" font-size="14" lengthAdjust="spacing" textLength="137.6689" x="346.5" y="573.2285">INFRAESTRUCTURA</text><text fill="#000000" font-family="sans-serif" font-size="14" lengthAdjust="spacing" textLength="72.3379" x="346.5" y="591.8496">ATENCION</text><text fill="#000000" font-family="sans-serif" font-size="14" lengthAdjust="spacing" textLength="49.7793" x="346.5" y="610.4707">OTROS</text><line style="stroke:#181818;stroke-width:0.5;" x1="341.5" x2="489.1689" y1="617.9844" y2="617.9844"/></g></a><!--class Sugerencia--><a href="java:sugerencias.Sugerencia" target="_top" title="java:sugerencias.Sugerencia" xlink:actuate="onRequest" xlink:href="java:sugerencias.Sugerencia" xlink:show="new" xlink:title="java:sugerencias.Sugerencia" xlink:type="simple"><g id="elem_Sugerencia"><rect codeLine="50" fill="#F1F1F1" height="178.3477" id="Sugerencia" rx="2.5" ry="2.5" style="stroke:#181818;stroke-width:0.5;" width="457.1152" x="319" y="209"/><ellipse cx="507.894" cy="225" fill="#ADD1B2" rx="11" ry="11" style="stroke:#181818;stroke-width:1.0;"/><path d="M510.6597,220.875 Q510.8159,220.6563 511.0034,220.5469 Q511.1909,220.4375 511.4097,220.4375 Q511.7847,220.4375 512.019,220.7031 Q512.2534,220.9531 512.2534,221.5625 L512.2534,223.0156 Q512.2534,223.625 512.019,223.8906 Q511.7847,224.1563 511.4097,224.1563 Q511.0659,224.1563 510.8628,223.9531 Q510.6597,223.7656 510.5503,223.25 Q510.5034,222.8906 510.3159,222.7031 Q509.9878,222.3281 509.3784,222.1094 Q508.769,221.8906 508.144,221.8906 Q507.3784,221.8906 506.7378,222.2188 Q506.1128,222.5469 505.6128,223.2969 Q505.1284,224.0469 505.1284,225.0781 L505.1284,226.1719 Q505.1284,227.4063 506.019,228.2344 Q506.9097,229.0469 508.5034,229.0469 Q509.4409,229.0469 510.0972,228.7969 Q510.4878,228.6406 510.9097,228.2031 Q511.1753,227.9375 511.3159,227.8594 Q511.4722,227.7813 511.6753,227.7813 Q512.0034,227.7813 512.2534,228.0469 Q512.519,228.2969 512.519,228.6406 Q512.519,228.9844 512.1753,229.3906 Q511.6753,229.9688 510.8784,230.2969 Q509.8003,230.75 508.5034,230.75 Q506.9878,230.75 505.7847,230.125 Q504.8003,229.625 504.1128,228.5625 Q503.4253,227.4844 503.4253,226.2031 L503.4253,225.0469 Q503.4253,223.7188 504.0347,222.5781 Q504.6597,221.4219 505.7534,220.8125 Q506.8472,220.1875 508.0815,220.1875 Q508.8159,220.1875 509.4565,220.3594 Q510.1128,220.5156 510.6597,220.875 Z " fill="#000000"/><text fill="#000000" font-family="sans-serif" font-size="14" lengthAdjust="spacing" textLength="70.8271" x="528.394" y="230.7969">Sugerencia</text><line style="stroke:#181818;stroke-width:0.5;" x1="320" x2="775.1152" y1="241" y2="241"/><rect fill="none" height="6" style="stroke:#C82930;stroke-width:1.0;" width="6" x="327" y="252.8105"/><text fill="#000000" font-family="sans-serif" font-size="14" lengthAdjust="spacing" textLength="115.165" x="339" y="260.1074">descripcion: String</text><rect fill="none" height="6" style="stroke:#C82930;stroke-width:1.0;" width="6" x="327" y="271.4316"/><text fill="#000000" font-family="sans-serif" font-size="14" lengthAdjust="spacing" textLength="106.6064" x="339" y="278.7285">fecha: LocalTime</text><line style="stroke:#181818;stroke-width:0.5;" x1="320" x2="775.1152" y1="286.2422" y2="286.2422"/><ellipse cx="330" cy="301.0527" fill="#84BE84" rx="3" ry="3" style="stroke:#038048;stroke-width:1.0;"/><text fill="#000000" font-family="sans-serif" font-size="14" lengthAdjust="spacing" textLength="431.1152" x="339" y="305.3496">Sugerencia(descripcion: String, tipo: TipoSugerencia, cliente: Cliente)</text><ellipse cx="330" cy="319.6738" fill="#84BE84" rx="3" ry="3" style="stroke:#038048;stroke-width:1.0;"/><text fill="#000000" font-family="sans-serif" font-size="14" lengthAdjust="spacing" textLength="146.2754" x="339" y="323.9707">getDescripcion(): String</text><ellipse cx="330" cy="338.2949" fill="#84BE84" rx="3" ry="3" style="stroke:#038048;stroke-width:1.0;"/><text fill="#000000" font-family="sans-serif" font-size="14" lengthAdjust="spacing" textLength="140.0547" x="339" y="342.5918">getFecha(): LocalTime</text><ellipse cx="330" cy="356.916" fill="#84BE84" rx="3" ry="3" style="stroke:#038048;stroke-width:1.0;"/><text fill="#000000" font-family="sans-serif" font-size="14" lengthAdjust="spacing" textLength="161.8613" x="339" y="361.2129">getTipo(): TipoSugerencia</text><ellipse cx="330" cy="375.5371" fill="#84BE84" rx="3" ry="3" style="stroke:#038048;stroke-width:1.0;"/><text fill="#000000" font-family="sans-serif" font-size="14" lengthAdjust="spacing" textLength="123.7236" x="339" y="379.834">getCliente(): Cliente</text></g></a><!--class Preciable--><a href="java:menu.Preciable" target="_top" title="java:menu.Preciable" xlink:actuate="onRequest" xlink:href="java:menu.Preciable" xlink:show="new" xlink:title="java:menu.Preciable" xlink:type="simple"><g id="elem_Preciable"><rect codeLine="63" fill="#F1F1F1" height="66.6211" id="Preciable" rx="2.5" ry="2.5" style="stroke:#181818;stroke-width:0.5;" width="117.041" x="2266" y="751"/><ellipse cx="2293.0041" cy="767" fill="#B4A7E5" rx="11" ry="11" style="stroke:#181818;stroke-width:1.0;"/><path d="M2293.9572,763.6406 L2293.9572,770.2969 L2295.676,770.2969 Q2296.2854,770.2969 2296.551,770.5313 Q2296.8166,770.7656 2296.8166,771.1563 Q2296.8166,771.5313 2296.551,771.7656 Q2296.2854,772 2295.676,772 L2290.5354,772 Q2289.926,772 2289.6604,771.7656 Q2289.3947,771.5313 2289.3947,771.1406 Q2289.3947,770.7656 2289.6604,770.5313 Q2289.926,770.2969 2290.5354,770.2969 L2292.2541,770.2969 L2292.2541,763.6406 L2290.5354,763.6406 Q2289.926,763.6406 2289.6604,763.4063 Q2289.3947,763.1719 2289.3947,762.7813 Q2289.3947,762.4063 2289.6604,762.1719 Q2289.926,761.9375 2290.5354,761.9375 L2295.676,761.9375 Q2296.2854,761.9375 2296.551,762.1719 Q2296.8166,762.4063 2296.8166,762.7813 Q2296.8166,763.1719 2296.551,763.4063 Q2296.2854,763.6406 2295.676,763.6406 L2293.9572,763.6406 Z " fill="#000000"/><text fill="#000000" font-family="sans-serif" font-size="14" font-style="italic" lengthAdjust="spacing" textLength="58.3652" x="2309.6717" y="772.7969">Preciable</text><line style="stroke:#181818;stroke-width:0.5;" x1="2267" x2="2382.041" y1="783" y2="783"/><line style="stroke:#181818;stroke-width:0.5;" x1="2267" x2="2382.041" y1="791" y2="791"/><text fill="#000000" font-family="sans-serif" font-size="14" lengthAdjust="spacing" textLength="105.041" x="2272" y="810.1074">getPrecio(): Real</text></g></a><!--class TipoComida--><a href="java:menu.TipoComida" target="_top" title="java:menu.TipoComida" xlink:actuate="onRequest" xlink:href="java:menu.TipoComida" xlink:show="new" xlink:title="java:menu.TipoComida" xlink:type="simple"><g id="elem_TipoComida"><rect codeLine="67" fill="#F1F1F1" height="122.4844" id="TipoComida" rx="2.5" ry="2.5" style="stroke:#181818;stroke-width:0.5;" width="139.5996" x="2254.5" y="1533"/><ellipse cx="2283.9558" cy="1549" fill="#EB937F" rx="11" ry="11" style="stroke:#181818;stroke-width:1.0;"/><path d="M2282.8152,1549.7969 L2282.8152,1552.2969 L2287.1433,1552.2969 L2287.1433,1551.375 Q2287.1433,1550.7656 2287.3777,1550.5 Q2287.6277,1550.2344 2288.0027,1550.2344 Q2288.3777,1550.2344 2288.6121,1550.5 Q2288.8464,1550.7656 2288.8464,1551.375 L2288.8464,1554 L2280.8464,1554 Q2280.2214,1554 2279.9558,1553.7656 Q2279.7058,1553.5313 2279.7058,1553.1406 Q2279.7058,1552.7656 2279.9714,1552.5313 Q2280.2371,1552.2969 2280.8464,1552.2969 L2281.1121,1552.2969 L2281.1121,1545.6406 L2280.8464,1545.6406 Q2280.2214,1545.6406 2279.9558,1545.4063 Q2279.7058,1545.1719 2279.7058,1544.7813 Q2279.7058,1544.4063 2279.9558,1544.1719 Q2280.2214,1543.9375 2280.8464,1543.9375 L2288.4714,1543.9375 L2288.4714,1546.5313 Q2288.4714,1547.1406 2288.2371,1547.4063 Q2288.0183,1547.6563 2287.6277,1547.6563 Q2287.2527,1547.6563 2287.0183,1547.4063 Q2286.7839,1547.1406 2286.7839,1546.5313 L2286.7839,1545.6406 L2282.8152,1545.6406 L2282.8152,1548.0938 L2284.2996,1548.0938 Q2284.2996,1547.4375 2284.4246,1547.25 Q2284.6902,1546.8438 2285.1589,1546.8438 Q2285.5339,1546.8438 2285.7683,1547.1094 Q2286.0027,1547.3594 2286.0027,1547.9688 L2286.0027,1549.9375 Q2286.0027,1550.4844 2285.8777,1550.6719 Q2285.6121,1551.0625 2285.1589,1551.0625 Q2284.6902,1551.0625 2284.4246,1550.6563 Q2284.2996,1550.4688 2284.2996,1549.7969 L2282.8152,1549.7969 Z " fill="#000000"/><text fill="#000000" font-family="sans-serif" font-size="14" lengthAdjust="spacing" textLength="75.4756" x="2301.1682" y="1554.7969">TipoComida</text><line style="stroke:#181818;stroke-width:0.5;" x1="2255.5" x2="2393.0996" y1="1565" y2="1565"/><text fill="#000000" font-family="sans-serif" font-size="14" lengthAdjust="spacing" textLength="66.8965" x="2260.5" y="1584.1074">ENTRADA</text><text fill="#000000" font-family="sans-serif" font-size="14" lengthAdjust="spacing" textLength="127.5996" x="2260.5" y="1602.7285">PLATO_PRINCIPAL</text><text fill="#000000" font-family="sans-serif" font-size="14" lengthAdjust="spacing" textLength="57.5654" x="2260.5" y="1621.3496">POSTRE</text><text fill="#000000" font-family="sans-serif" font-size="14" lengthAdjust="spacing" textLength="51.3516" x="2260.5" y="1639.9707">BEBIDA</text><line style="stroke:#181818;stroke-width:0.5;" x1="2255.5" x2="2393.0996" y1="1647.4844" y2="1647.4844"/></g></a><!--class Comida--><a href="java:menu.Comida" target="_top" title="java:menu.Comida" xlink:actuate="onRequest" xlink:href="java:menu.Comida" xlink:show="new" xlink:title="java:menu.Comida" xlink:type="simple"><g id="elem_Comida"><rect codeLine="74" fill="#F1F1F1" height="252.832" id="Comida" rx="2.5" ry="2.5" style="stroke:#181818;stroke-width:0.5;" width="745.8105" x="1951.5" y="1201"/><ellipse cx="2296.0347" cy="1217" fill="#ADD1B2" rx="11" ry="11" style="stroke:#181818;stroke-width:1.0;"/><path d="M2298.8003,1212.875 Q2298.9565,1212.6563 2299.144,1212.5469 Q2299.3315,1212.4375 2299.5503,1212.4375 Q2299.9253,1212.4375 2300.1597,1212.7031 Q2300.394,1212.9531 2300.394,1213.5625 L2300.394,1215.0156 Q2300.394,1215.625 2300.1597,1215.8906 Q2299.9253,1216.1563 2299.5503,1216.1563 Q2299.2065,1216.1563 2299.0034,1215.9531 Q2298.8003,1215.7656 2298.6909,1215.25 Q2298.644,1214.8906 2298.4565,1214.7031 Q2298.1284,1214.3281 2297.519,1214.1094 Q2296.9097,1213.8906 2296.2847,1213.8906 Q2295.519,1213.8906 2294.8784,1214.2188 Q2294.2534,1214.5469 2293.7534,1215.2969 Q2293.269,1216.0469 2293.269,1217.0781 L2293.269,1218.1719 Q2293.269,1219.4063 2294.1597,1220.2344 Q2295.0503,1221.0469 2296.644,1221.0469 Q2297.5815,1221.0469 2298.2378,1220.7969 Q2298.6284,1220.6406 2299.0503,1220.2031 Q2299.3159,1219.9375 2299.4565,1219.8594 Q2299.6128,1219.7813 2299.8159,1219.7813 Q2300.144,1219.7813 2300.394,1220.0469 Q2300.6597,1220.2969 2300.6597,1220.6406 Q2300.6597,1220.9844 2300.3159,1221.3906 Q2299.8159,1221.9688 2299.019,1222.2969 Q2297.9409,1222.75 2296.644,1222.75 Q2295.1284,1222.75 2293.9253,1222.125 Q2292.9409,1221.625 2292.2534,1220.5625 Q2291.5659,1219.4844 2291.5659,1218.2031 L2291.5659,1217.0469 Q2291.5659,1215.7188 2292.1753,1214.5781 Q2292.8003,1213.4219 2293.894,1212.8125 Q2294.9878,1212.1875 2296.2222,1212.1875 Q2296.9565,1212.1875 2297.5972,1212.3594 Q2298.2534,1212.5156 2298.8003,1212.875 Z " fill="#000000"/><text fill="#000000" font-family="sans-serif" font-size="14" lengthAdjust="spacing" textLength="48.2412" x="2316.5347" y="1222.7969">Comida</text><line style="stroke:#181818;stroke-width:0.5;" x1="1952.5" x2="2696.3105" y1="1233" y2="1233"/><rect fill="none" height="6" style="stroke:#C82930;stroke-width:1.0;" width="6" x="1959.5" y="1244.8105"/><text fill="#000000" font-family="sans-serif" font-size="14" lengthAdjust="spacing" textLength="91.8203" x="1971.5" y="1252.1074">nombre: String</text><rect fill="none" height="6" style="stroke:#C82930;stroke-width:1.0;" width="6" x="1959.5" y="1263.4316"/><text fill="#000000" font-family="sans-serif" font-size="14" lengthAdjust="spacing" textLength="106.6064" x="1971.5" y="1270.7285">urlImagen: String</text><rect fill="none" height="6" style="stroke:#C82930;stroke-width:1.0;" width="6" x="1959.5" y="1282.0527"/><text fill="#000000" font-family="sans-serif" font-size="14" lengthAdjust="spacing" textLength="149.4473" x="1971.5" y="1289.3496">esVegetariana: Boolean</text><rect fill="none" height="6" style="stroke:#C82930;stroke-width:1.0;" width="6" x="1959.5" y="1300.6738"/><text fill="#000000" font-family="sans-serif" font-size="14" lengthAdjust="spacing" textLength="74.7031" x="1971.5" y="1307.9707">precio: Real</text><line style="stroke:#181818;stroke-width:0.5;" x1="1952.5" x2="2696.3105" y1="1315.4844" y2="1315.4844"/><ellipse cx="1962.5" cy="1330.2949" fill="#84BE84" rx="3" ry="3" style="stroke:#038048;stroke-width:1.0;"/><text fill="#000000" font-family="sans-serif" font-size="14" lengthAdjust="spacing" textLength="719.8105" x="1971.5" y="1334.5918">&#171;create&#187;Comida(nombre: String, urlImagen: String, tipoComida: TipoComida, esVegetariana: Boolean, precio: Real)</text><ellipse cx="1962.5" cy="1348.916" fill="#84BE84" rx="3" ry="3" style="stroke:#038048;stroke-width:1.0;"/><text fill="#000000" font-family="sans-serif" font-size="14" lengthAdjust="spacing" textLength="122.9307" x="1971.5" y="1353.2129">getNombre(): String</text><ellipse cx="1962.5" cy="1367.5371" fill="#84BE84" rx="3" ry="3" style="stroke:#038048;stroke-width:1.0;"/><text fill="#000000" font-family="sans-serif" font-size="14" lengthAdjust="spacing" textLength="137.7168" x="1971.5" y="1371.834">getUrlImagen(): String</text><ellipse cx="1962.5" cy="1386.1582" fill="#84BE84" rx="3" ry="3" style="stroke:#038048;stroke-width:1.0;"/><text fill="#000000" font-family="sans-serif" font-size="14" lengthAdjust="spacing" textLength="158.7715" x="1971.5" y="1390.4551">esVegetariana(): Boolean</text><ellipse cx="1962.5" cy="1404.7793" fill="#84BE84" rx="3" ry="3" style="stroke:#038048;stroke-width:1.0;"/><text fill="#000000" font-family="sans-serif" font-size="14" lengthAdjust="spacing" textLength="105.041" x="1971.5" y="1409.0762">getPrecio(): Real</text><ellipse cx="1962.5" cy="1423.4004" fill="#84BE84" rx="3" ry="3" style="stroke:#038048;stroke-width:1.0;"/><text fill="#000000" font-family="sans-serif" font-size="14" lengthAdjust="spacing" textLength="187.5166" x="1971.5" y="1427.6973">getTipoComida(): TipoComida</text><ellipse cx="1962.5" cy="1442.0215" fill="#84BE84" rx="3" ry="3" style="stroke:#038048;stroke-width:1.0;"/><text fill="#000000" font-family="sans-serif" font-size="14" lengthAdjust="spacing" textLength="195.3369" x="1971.5" y="1446.3184">equals(object: Object): Boolean</text></g></a><!--class Menu--><a href="java:menu.Menu" target="_top" title="java:menu.Menu" xlink:actuate="onRequest" xlink:href="java:menu.Menu" xlink:show="new" xlink:title="java:menu.Menu" xlink:type="simple"><g id="elem_Menu"><rect codeLine="90" fill="#F1F1F1" height="234.2109" id="Menu" rx="2.5" ry="2.5" style="stroke:#181818;stroke-width:0.5;" width="383.957" x="2305.5" y="888"/><ellipse cx="2475.7183" cy="904" fill="#ADD1B2" rx="11" ry="11" style="stroke:#181818;stroke-width:1.0;"/><path d="M2478.4839,899.875 Q2478.6401,899.6563 2478.8276,899.5469 Q2479.0151,899.4375 2479.2339,899.4375 Q2479.6089,899.4375 2479.8433,899.7031 Q2480.0776,899.9531 2480.0776,900.5625 L2480.0776,902.0156 Q2480.0776,902.625 2479.8433,902.8906 Q2479.6089,903.1563 2479.2339,903.1563 Q2478.8901,903.1563 2478.687,902.9531 Q2478.4839,902.7656 2478.3745,902.25 Q2478.3276,901.8906 2478.1401,901.7031 Q2477.812,901.3281 2477.2026,901.1094 Q2476.5933,900.8906 2475.9683,900.8906 Q2475.2026,900.8906 2474.562,901.2188 Q2473.937,901.5469 2473.437,902.2969 Q2472.9526,903.0469 2472.9526,904.0781 L2472.9526,905.1719 Q2472.9526,906.4063 2473.8433,907.2344 Q2474.7339,908.0469 2476.3276,908.0469 Q2477.2651,908.0469 2477.9214,907.7969 Q2478.312,907.6406 2478.7339,907.2031 Q2478.9995,906.9375 2479.1401,906.8594 Q2479.2964,906.7813 2479.4995,906.7813 Q2479.8276,906.7813 2480.0776,907.0469 Q2480.3433,907.2969 2480.3433,907.6406 Q2480.3433,907.9844 2479.9995,908.3906 Q2479.4995,908.9688 2478.7026,909.2969 Q2477.6245,909.75 2476.3276,909.75 Q2474.812,909.75 2473.6089,909.125 Q2472.6245,908.625 2471.937,907.5625 Q2471.2495,906.4844 2471.2495,905.2031 L2471.2495,904.0469 Q2471.2495,902.7188 2471.8589,901.5781 Q2472.4839,900.4219 2473.5776,899.8125 Q2474.6714,899.1875 2475.9058,899.1875 Q2476.6401,899.1875 2477.2808,899.3594 Q2477.937,899.5156 2478.4839,899.875 Z " fill="#000000"/><text fill="#000000" font-family="sans-serif" font-size="14" lengthAdjust="spacing" textLength="35.0205" x="2496.2183" y="909.7969">Menu</text><line style="stroke:#181818;stroke-width:0.5;" x1="2306.5" x2="2688.457" y1="920" y2="920"/><rect fill="none" height="6" style="stroke:#C82930;stroke-width:1.0;" width="6" x="2313.5" y="931.8105"/><text fill="#000000" font-family="sans-serif" font-size="14" lengthAdjust="spacing" textLength="91.8203" x="2325.5" y="939.1074">nombre: String</text><rect fill="none" height="6" style="stroke:#C82930;stroke-width:1.0;" width="6" x="2313.5" y="950.4316"/><text fill="#000000" font-family="sans-serif" font-size="14" lengthAdjust="spacing" textLength="74.7031" x="2325.5" y="957.7285">precio: Real</text><line style="stroke:#181818;stroke-width:0.5;" x1="2306.5" x2="2688.457" y1="965.2422" y2="965.2422"/><ellipse cx="2316.5" cy="980.0527" fill="#84BE84" rx="3" ry="3" style="stroke:#038048;stroke-width:1.0;"/><text fill="#000000" font-family="sans-serif" font-size="14" lengthAdjust="spacing" textLength="273.1299" x="2325.5" y="984.3496">&#171;create&#187;Menu(nombre: String, precio: Real)</text><ellipse cx="2316.5" cy="998.6738" fill="#84BE84" rx="3" ry="3" style="stroke:#038048;stroke-width:1.0;"/><text fill="#000000" font-family="sans-serif" font-size="14" lengthAdjust="spacing" textLength="316.7363" x="2325.5" y="1002.9707">addComidaVegetariana(comida: Comida): Boolean</text><ellipse cx="2316.5" cy="1017.2949" fill="#84BE84" rx="3" ry="3" style="stroke:#038048;stroke-width:1.0;"/><text fill="#000000" font-family="sans-serif" font-size="14" lengthAdjust="spacing" textLength="334.6328" x="2325.5" y="1021.5918">addComidaNoVegetariana(comida: Comida): Boolean</text><ellipse cx="2316.5" cy="1035.916" fill="#84BE84" rx="3" ry="3" style="stroke:#038048;stroke-width:1.0;"/><text fill="#000000" font-family="sans-serif" font-size="14" lengthAdjust="spacing" textLength="340.0605" x="2325.5" y="1040.2129">removeComidaVegetariana(comida: Comida): Boolean</text><ellipse cx="2316.5" cy="1054.5371" fill="#84BE84" rx="3" ry="3" style="stroke:#038048;stroke-width:1.0;"/><text fill="#000000" font-family="sans-serif" font-size="14" lengthAdjust="spacing" textLength="357.957" x="2325.5" y="1058.834">removeComidaNoVegetariana(comida: Comida): Boolean</text><ellipse cx="2316.5" cy="1073.1582" fill="#84BE84" rx="3" ry="3" style="stroke:#038048;stroke-width:1.0;"/><text fill="#000000" font-family="sans-serif" font-size="14" lengthAdjust="spacing" textLength="122.9307" x="2325.5" y="1077.4551">getNombre(): String</text><ellipse cx="2316.5" cy="1091.7793" fill="#84BE84" rx="3" ry="3" style="stroke:#038048;stroke-width:1.0;"/><text fill="#000000" font-family="sans-serif" font-size="14" lengthAdjust="spacing" textLength="105.041" x="2325.5" y="1096.0762">getPrecio(): Real</text><ellipse cx="2316.5" cy="1110.4004" fill="#84BE84" rx="3" ry="3" style="stroke:#038048;stroke-width:1.0;"/><text fill="#000000" font-family="sans-serif" font-size="14" lengthAdjust="spacing" textLength="195.3369" x="2325.5" y="1114.6973">equals(object: Object): Boolean</text></g></a><!--class ItemPedido--><a href="java:menu.ItemPedido" target="_top" title="java:menu.ItemPedido" xlink:actuate="onRequest" xlink:href="java:menu.ItemPedido" xlink:show="new" xlink:title="java:menu.ItemPedido" xlink:type="simple"><g id="elem_ItemPedido"><rect codeLine="106" fill="#F1F1F1" height="196.9688" id="ItemPedido" rx="2.5" ry="2.5" style="stroke:#181818;stroke-width:0.5;" width="253.2197" x="2063" y="466"/><ellipse cx="2149.9497" cy="482" fill="#ADD1B2" rx="11" ry="11" style="stroke:#181818;stroke-width:1.0;"/><path d="M2152.7153,477.875 Q2152.8716,477.6563 2153.0591,477.5469 Q2153.2466,477.4375 2153.4653,477.4375 Q2153.8403,477.4375 2154.0747,477.7031 Q2154.3091,477.9531 2154.3091,478.5625 L2154.3091,480.0156 Q2154.3091,480.625 2154.0747,480.8906 Q2153.8403,481.1563 2153.4653,481.1563 Q2153.1216,481.1563 2152.9185,480.9531 Q2152.7153,480.7656 2152.606,480.25 Q2152.5591,479.8906 2152.3716,479.7031 Q2152.0435,479.3281 2151.4341,479.1094 Q2150.8247,478.8906 2150.1997,478.8906 Q2149.4341,478.8906 2148.7935,479.2188 Q2148.1685,479.5469 2147.6685,480.2969 Q2147.1841,481.0469 2147.1841,482.0781 L2147.1841,483.1719 Q2147.1841,484.4063 2148.0747,485.2344 Q2148.9653,486.0469 2150.5591,486.0469 Q2151.4966,486.0469 2152.1528,485.7969 Q2152.5435,485.6406 2152.9653,485.2031 Q2153.231,484.9375 2153.3716,484.8594 Q2153.5278,484.7813 2153.731,484.7813 Q2154.0591,484.7813 2154.3091,485.0469 Q2154.5747,485.2969 2154.5747,485.6406 Q2154.5747,485.9844 2154.231,486.3906 Q2153.731,486.9688 2152.9341,487.2969 Q2151.856,487.75 2150.5591,487.75 Q2149.0435,487.75 2147.8403,487.125 Q2146.856,486.625 2146.1685,485.5625 Q2145.481,484.4844 2145.481,483.2031 L2145.481,482.0469 Q2145.481,480.7188 2146.0903,479.5781 Q2146.7153,478.4219 2147.8091,477.8125 Q2148.9028,477.1875 2150.1372,477.1875 Q2150.8716,477.1875 2151.5122,477.3594 Q2152.1685,477.5156 2152.7153,477.875 Z " fill="#000000"/><text fill="#000000" font-family="sans-serif" font-size="14" lengthAdjust="spacing" textLength="70.8203" x="2170.4497" y="487.7969">ItemPedido</text><line style="stroke:#181818;stroke-width:0.5;" x1="2064" x2="2315.2197" y1="498" y2="498"/><rect fill="none" height="6" style="stroke:#C82930;stroke-width:1.0;" width="6" x="2071" y="509.8105"/><text fill="#000000" font-family="sans-serif" font-size="14" lengthAdjust="spacing" textLength="122.9443" x="2083" y="517.1074">precioUnitario: Real</text><rect fill="none" height="6" style="stroke:#C82930;stroke-width:1.0;" width="6" x="2071" y="528.4316"/><text fill="#000000" font-family="sans-serif" font-size="14" lengthAdjust="spacing" textLength="104.2959" x="2083" y="535.7285">cantidad: Integer</text><line style="stroke:#181818;stroke-width:0.5;" x1="2064" x2="2315.2197" y1="543.2422" y2="543.2422"/><ellipse cx="2074" cy="558.0527" fill="#84BE84" rx="3" ry="3" style="stroke:#038048;stroke-width:1.0;"/><text fill="#000000" font-family="sans-serif" font-size="14" lengthAdjust="spacing" textLength="227.2197" x="2083" y="562.3496">&#171;create&#187;ItemPedido(item: Preciable)</text><ellipse cx="2074" cy="576.6738" fill="#84BE84" rx="3" ry="3" style="stroke:#038048;stroke-width:1.0;"/><text fill="#000000" font-family="sans-serif" font-size="14" lengthAdjust="spacing" textLength="153.2822" x="2083" y="580.9707">getPrecioUnitario(): Real</text><ellipse cx="2074" cy="595.2949" fill="#84BE84" rx="3" ry="3" style="stroke:#038048;stroke-width:1.0;"/><text fill="#000000" font-family="sans-serif" font-size="14" lengthAdjust="spacing" textLength="105.041" x="2083" y="599.5918">getPrecio(): Real</text><ellipse cx="2074" cy="613.916" fill="#84BE84" rx="3" ry="3" style="stroke:#038048;stroke-width:1.0;"/><text fill="#000000" font-family="sans-serif" font-size="14" lengthAdjust="spacing" textLength="136.1924" x="2083" y="618.2129">getCantidad(): Integer</text><ellipse cx="2074" cy="632.5371" fill="#84BE84" rx="3" ry="3" style="stroke:#038048;stroke-width:1.0;"/><text fill="#000000" font-family="sans-serif" font-size="14" lengthAdjust="spacing" textLength="88.7236" x="2083" y="636.834">addCantidad()</text><ellipse cx="2074" cy="651.1582" fill="#84BE84" rx="3" ry="3" style="stroke:#038048;stroke-width:1.0;"/><text fill="#000000" font-family="sans-serif" font-size="14" lengthAdjust="spacing" textLength="122.1582" x="2083" y="655.4551">getItem(): Preciable</text></g></a><!--class Pedido--><a href="java:menu.Pedido" target="_top" title="java:menu.Pedido" xlink:actuate="onRequest" xlink:href="java:menu.Pedido" xlink:show="new" xlink:title="java:menu.Pedido" xlink:type="simple"><g id="elem_Pedido"><rect codeLine="119" fill="#F1F1F1" height="141.1055" id="Pedido" rx="2.5" ry="2.5" style="stroke:#181818;stroke-width:0.5;" width="225.2266" x="2077" y="227.5"/><ellipse cx="2163.5669" cy="243.5" fill="#ADD1B2" rx="11" ry="11" style="stroke:#181818;stroke-width:1.0;"/><path d="M2166.3325,239.375 Q2166.4888,239.1563 2166.6763,239.0469 Q2166.8638,238.9375 2167.0825,238.9375 Q2167.4575,238.9375 2167.6919,239.2031 Q2167.9263,239.4531 2167.9263,240.0625 L2167.9263,241.5156 Q2167.9263,242.125 2167.6919,242.3906 Q2167.4575,242.6563 2167.0825,242.6563 Q2166.7388,242.6563 2166.5356,242.4531 Q2166.3325,242.2656 2166.2231,241.75 Q2166.1763,241.3906 2165.9888,241.2031 Q2165.6606,240.8281 2165.0513,240.6094 Q2164.4419,240.3906 2163.8169,240.3906 Q2163.0513,240.3906 2162.4106,240.7188 Q2161.7856,241.0469 2161.2856,241.7969 Q2160.8013,242.5469 2160.8013,243.5781 L2160.8013,244.6719 Q2160.8013,245.9063 2161.6919,246.7344 Q2162.5825,247.5469 2164.1763,247.5469 Q2165.1138,247.5469 2165.77,247.2969 Q2166.1606,247.1406 2166.5825,246.7031 Q2166.8481,246.4375 2166.9888,246.3594 Q2167.145,246.2813 2167.3481,246.2813 Q2167.6763,246.2813 2167.9263,246.5469 Q2168.1919,246.7969 2168.1919,247.1406 Q2168.1919,247.4844 2167.8481,247.8906 Q2167.3481,248.4688 2166.5513,248.7969 Q2165.4731,249.25 2164.1763,249.25 Q2162.6606,249.25 2161.4575,248.625 Q2160.4731,248.125 2159.7856,247.0625 Q2159.0981,245.9844 2159.0981,244.7031 L2159.0981,243.5469 Q2159.0981,242.2188 2159.7075,241.0781 Q2160.3325,239.9219 2161.4263,239.3125 Q2162.52,238.6875 2163.7544,238.6875 Q2164.4888,238.6875 2165.1294,238.8594 Q2165.7856,239.0156 2166.3325,239.375 Z " fill="#000000"/><text fill="#000000" font-family="sans-serif" font-size="14" lengthAdjust="spacing" textLength="43.5928" x="2184.0669" y="249.2969">Pedido</text><line style="stroke:#181818;stroke-width:0.5;" x1="2078" x2="2301.2266" y1="259.5" y2="259.5"/><line style="stroke:#181818;stroke-width:0.5;" x1="2078" x2="2301.2266" y1="267.5" y2="267.5"/><ellipse cx="2088" cy="282.3105" fill="#84BE84" rx="3" ry="3" style="stroke:#038048;stroke-width:1.0;"/><text fill="#000000" font-family="sans-serif" font-size="14" lengthAdjust="spacing" textLength="199.2266" x="2097" y="286.6074">&#171;create&#187;Pedido(cliente: Cliente)</text><ellipse cx="2088" cy="300.9316" fill="#84BE84" rx="3" ry="3" style="stroke:#038048;stroke-width:1.0;"/><text fill="#000000" font-family="sans-serif" font-size="14" lengthAdjust="spacing" textLength="152.5029" x="2097" y="305.2285">addItem(item: Preciable)</text><ellipse cx="2088" cy="319.5527" fill="#84BE84" rx="3" ry="3" style="stroke:#038048;stroke-width:1.0;"/><text fill="#000000" font-family="sans-serif" font-size="14" lengthAdjust="spacing" textLength="105.041" x="2097" y="323.8496">getPrecio(): Real</text><ellipse cx="2088" cy="338.1738" fill="#84BE84" rx="3" ry="3" style="stroke:#038048;stroke-width:1.0;"/><text fill="#000000" font-family="sans-serif" font-size="14" lengthAdjust="spacing" textLength="123.7236" x="2097" y="342.4707">getCliente(): Cliente</text><ellipse cx="2088" cy="356.7949" fill="#84BE84" rx="3" ry="3" style="stroke:#038048;stroke-width:1.0;"/><text fill="#000000" font-family="sans-serif" font-size="14" lengthAdjust="spacing" textLength="179.751" x="2097" y="361.0918">getItems(): List&lt;ItemPedido&gt;</text></g></a><!--reverse link Usuario to Administrador--><g id="link_Usuario_Administrador"><path d="M157.4775,166.1649 C153.9075,205.1249 151.27,233.92 148.48,264.47 " fill="none" id="Usuario-backto-Administrador" style="stroke:#181818;stroke-width:1.0;"/><polygon fill="none" points="159.12,148.24,151.5025,165.6174,163.4525,166.7124,159.12,148.24" style="stroke:#181818;stroke-width:1.0;"/></g><!--reverse link Usuario to NoAdmin--><g id="link_Usuario_NoAdmin"><path d="M329.9463,109.9197 C457.5663,134.8397 629.54,169.87 793.5,209 C799.2,210.36 804.96,211.75 810.75,213.16 " fill="none" id="Usuario-backto-NoAdmin" style="stroke:#181818;stroke-width:1.0;"/><polygon fill="none" points="312.28,106.47,328.7965,115.8084,331.0962,104.0309,312.28,106.47" style="stroke:#181818;stroke-width:1.0;"/></g><!--reverse link NoAdmin to ResponsableDeTurno--><g id="link_NoAdmin_ResponsableDeTurno"><path d="M1308.3574,395.2433 C1397.5574,440.7033 1486.16,485.86 1556.86,521.89 " fill="none" id="NoAdmin-backto-ResponsableDeTurno" style="stroke:#181818;stroke-width:1.0;"/><polygon fill="none" points="1292.32,387.07,1305.6329,400.5891,1311.0818,389.8975,1292.32,387.07" style="stroke:#181818;stroke-width:1.0;"/></g><!--link ResponsableDeTurno to Turno--><g id="link_ResponsableDeTurno_Turno"><path codeLine="34" d="M1638.5,607.02 C1638.5,645.68 1638.5,697.03 1638.5,735.77 " fill="none" id="ResponsableDeTurno-to-Turno" style="stroke:#181818;stroke-width:1.0;"/><polygon fill="#181818" points="1638.5,741.77,1642.5,732.77,1638.5,736.77,1634.5,732.77,1638.5,741.77" style="stroke:#181818;stroke-width:1.0;"/><rect fill="none" height="6" style="stroke:#C82930;stroke-width:1.0;" width="6" x="1641.5" y="700.1455"/><text fill="#000000" font-family="sans-serif" font-size="13" lengthAdjust="spacing" textLength="29.6309" x="1651.5" y="708.0283">turno</text><text fill="#000000" font-family="sans-serif" font-size="13" lengthAdjust="spacing" textLength="7.23" x="1630.9688" y="730.6374">1</text></g><!--reverse link NoAdmin to Cliente--><g id="link_NoAdmin_Cliente"><path d="M1023.887,400.1527 C984.547,441.7827 951.33,476.93 917.77,512.43 " fill="none" id="NoAdmin-backto-Cliente" style="stroke:#181818;stroke-width:1.0;"/><polygon fill="none" points="1036.25,387.07,1019.5261,396.0317,1028.2479,404.2737,1036.25,387.07" style="stroke:#181818;stroke-width:1.0;"/></g><!--link Sugerencia to TipoSugerencia--><g id="link_Sugerencia_TipoSugerencia"><path codeLine="60" d="M503.55,387.07 C484.5,425.25 465.3589,463.5913 448.2089,497.9613 " fill="none" id="Sugerencia-to-TipoSugerencia" style="stroke:#181818;stroke-width:1.0;"/><polygon fill="#181818" points="445.53,503.33,453.1275,497.0628,447.7624,498.856,445.9692,493.4909,445.53,503.33" style="stroke:#181818;stroke-width:1.0;"/><rect fill="none" height="6" style="stroke:#C82930;stroke-width:1.0;" width="6" x="488.5" y="424.1455"/><text fill="#000000" font-family="sans-serif" font-size="13" lengthAdjust="spacing" textLength="20.96" x="498.5" y="432.0283">tipo</text><text fill="#000000" font-family="sans-serif" font-size="13" lengthAdjust="spacing" textLength="7.23" x="441.63" y="492.2915">1</text></g><!--link Sugerencia to Cliente--><g id="link_Sugerencia_Cliente"><path codeLine="61" d="M654.72,387.07 C705.4,428.7 759.474,473.1212 802.684,508.6212 " fill="none" id="Sugerencia-to-Cliente" style="stroke:#181818;stroke-width:1.0;"/><polygon fill="#181818" points="807.32,512.43,802.9052,503.6261,803.4566,509.256,797.8267,509.8075,807.32,512.43" style="stroke:#181818;stroke-width:1.0;"/><rect fill="none" height="6" style="stroke:#C82930;stroke-width:1.0;" width="6" x="711.5" y="424.1455"/><text fill="#000000" font-family="sans-serif" font-size="13" lengthAdjust="spacing" textLength="37.5781" x="721.5" y="432.0283">cliente</text><text fill="#000000" font-family="sans-serif" font-size="13" lengthAdjust="spacing" textLength="7.23" x="791.4955" y="501.348">1</text></g><!--reverse link Preciable to Comida--><g id="link_Preciable_Comida"><path d="M2302.373,835.0054 C2294.123,854.7254 2291.71,863.96 2287.5,888 C2269.2,992.61 2281.68,1112.89 2296.91,1200.99 " fill="none" id="Preciable-backto-Comida" style="stroke:#181818;stroke-width:1.0;stroke-dasharray:7.0,7.0;"/><polygon fill="none" points="2309.32,818.4,2296.8379,832.6897,2307.9081,837.3211,2309.32,818.4" style="stroke:#181818;stroke-width:1.0;"/></g><!--link Comida to TipoComida--><g id="link_Comida_TipoComida"><path codeLine="88" d="M2324.5,1454.17 C2324.5,1481.62 2324.5,1503.46 2324.5,1526.93 " fill="none" id="Comida-to-TipoComida" style="stroke:#181818;stroke-width:1.0;"/><polygon fill="#181818" points="2324.5,1532.93,2328.5,1523.93,2324.5,1527.93,2320.5,1523.93,2324.5,1532.93" style="stroke:#181818;stroke-width:1.0;"/><rect fill="none" height="6" style="stroke:#C82930;stroke-width:1.0;" width="6" x="2327.5" y="1491.1455"/><text fill="#000000" font-family="sans-serif" font-size="13" lengthAdjust="spacing" textLength="65.7554" x="2337.5" y="1499.0283">tipoComida</text><text fill="#000000" font-family="sans-serif" font-size="13" lengthAdjust="spacing" textLength="7.23" x="2317.1318" y="1521.9031">1</text></g><!--reverse link Preciable to Menu--><g id="link_Preciable_Menu"><path d="M2361.5744,832.3215 C2376.5644,851.2515 2385.25,862.23 2405.52,887.83 " fill="none" id="Preciable-backto-Menu" style="stroke:#181818;stroke-width:1.0;stroke-dasharray:7.0,7.0;"/><polygon fill="none" points="2350.4,818.21,2356.8705,836.0463,2366.2782,828.5967,2350.4,818.21" style="stroke:#181818;stroke-width:1.0;"/></g><!--link Menu to Comida--><g id="link_Menu_Comida"><path codeLine="103" d="M2477.52,1122.14 C2472.5,1139.01 2466.26,1155.79 2458.5,1171 C2453.4,1181 2450.8266,1185.8834 2444.4466,1195.5434 " fill="none" id="Menu-to-Comida" style="stroke:#181818;stroke-width:1.0;"/><polygon fill="#181818" points="2441.14,1200.55,2449.4377,1195.2445,2443.8955,1196.3778,2442.7622,1190.8357,2441.14,1200.55" style="stroke:#181818;stroke-width:1.0;"/><rect fill="none" height="6" style="stroke:#C82930;stroke-width:1.0;" width="6" x="2469.5" y="1159.1455"/><text fill="#000000" font-family="sans-serif" font-size="13" lengthAdjust="spacing" textLength="102.6289" x="2479.5" y="1167.0283">menuVegetariano</text><text fill="#000000" font-family="sans-serif" font-size="13" lengthAdjust="spacing" textLength="5.0591" x="2442.7459" y="1189.7609">*</text></g><!--link Menu to Comida--><g id="link_Menu_Comida"><path codeLine="104" d="M2335.38,1122.45 C2328.5,1131.79 2322.43,1141.65 2317.5,1152 C2310.33,1167.05 2307.092,1177.7136 2305.592,1194.5636 " fill="none" id="Menu-to-Comida-1" style="stroke:#181818;stroke-width:1.0;"/><polygon fill="#181818" points="2305.06,1200.54,2309.8423,1191.9301,2305.5034,1195.5597,2301.8738,1191.2208,2305.06,1200.54" style="stroke:#181818;stroke-width:1.0;"/><rect fill="none" height="6" style="stroke:#C82930;stroke-width:1.0;" width="6" x="2320.5" y="1159.1455"/><text fill="#000000" font-family="sans-serif" font-size="13" lengthAdjust="spacing" textLength="119.2471" x="2330.5" y="1167.0283">menuNoVegetariano</text><text fill="#000000" font-family="sans-serif" font-size="13" lengthAdjust="spacing" textLength="5.0591" x="2298.7988" y="1189.7503">*</text></g><!--link ItemPedido to Preciable--><g id="link_ItemPedido_Preciable"><path codeLine="117" d="M2249.89,663.02 C2269.41,694.54 2286.5722,722.2482 2301.0622,745.6582 " fill="none" id="ItemPedido-to-Preciable" style="stroke:#181818;stroke-width:1.0;"/><polygon fill="#181818" points="2304.22,750.76,2302.8844,741.0021,2301.5885,746.5085,2296.0821,745.2126,2304.22,750.76" style="stroke:#181818;stroke-width:1.0;"/><rect fill="none" height="6" style="stroke:#C82930;stroke-width:1.0;" width="6" x="2280.5" y="700.1455"/><text fill="#000000" font-family="sans-serif" font-size="13" lengthAdjust="spacing" textLength="24.5591" x="2290.5" y="708.0283">item</text><text fill="#000000" font-family="sans-serif" font-size="13" lengthAdjust="spacing" textLength="7.23" x="2292.7049" y="739.8002">1</text></g><!--reverse link Preciable to Pedido--><g id="link_Preciable_Pedido"><path d="M2337.4358,733.1411 C2351.5358,674.0211 2370,564.21 2333.5,466 C2320.03,429.76 2294.78,396.12 2269.13,368.67 " fill="none" id="Preciable-backto-Pedido" style="stroke:#181818;stroke-width:1.0;stroke-dasharray:7.0,7.0;"/><polygon fill="none" points="2333.26,750.65,2343.2721,734.533,2331.5995,731.7491,2333.26,750.65" style="stroke:#181818;stroke-width:1.0;"/></g><!--link Pedido to ItemPedido--><g id="link_Pedido_ItemPedido"><path codeLine="126" d="M2189.5,368.84 C2189.5,398.53 2189.5,427.67 2189.5,459.87 " fill="none" id="Pedido-to-ItemPedido" style="stroke:#181818;stroke-width:1.0;"/><polygon fill="#181818" points="2189.5,465.87,2193.5,456.87,2189.5,460.87,2185.5,456.87,2189.5,465.87" style="stroke:#181818;stroke-width:1.0;"/><rect fill="none" height="6" style="stroke:#C82930;stroke-width:1.0;" width="6" x="2192.5" y="424.1455"/><text fill="#000000" font-family="sans-serif" font-size="13" lengthAdjust="spacing" textLength="31.0591" x="2202.5" y="432.0283">items</text><text fill="#000000" font-family="sans-serif" font-size="13" lengthAdjust="spacing" textLength="5.0591" x="2184.3024" y="454.7085">*</text></g><!--link Pedido to Cliente--><g id="link_Pedido_Cliente"><path codeLine="127" d="M2076.76,315.27 C1897.01,341.96 1534.8,398.86 1231.5,466 C1170.81,479.43 1110.8081,494.8295 1052.1781,510.8395 " fill="none" id="Pedido-to-Cliente" style="stroke:#181818;stroke-width:1.0;"/><polygon fill="#181818" points="1046.39,512.42,1056.1258,513.9079,1051.2134,511.1029,1054.0184,506.1905,1046.39,512.42" style="stroke:#181818;stroke-width:1.0;"/><rect fill="none" height="6" style="stroke:#C82930;stroke-width:1.0;" width="6" x="1470.5" y="424.1455"/><text fill="#000000" font-family="sans-serif" font-size="13" lengthAdjust="spacing" textLength="37.5781" x="1480.5" y="432.0283">cliente</text><text fill="#000000" font-family="sans-serif" font-size="13" lengthAdjust="spacing" textLength="7.23" x="1062.6906" y="501.3366">1</text></g><!--SRC=[jLRHRfim57s6hx3wbAoXqbvHLOacgOIKaeYGlLJLv82RkG8x0r9DglOH-wRzsAx161lSh9MsFhJDvTvxxZtds0Jlgxh4QOtI75SLsbKdN5AE7XwUyGlsJ-t7wah67n_Hg-ju6QC-2bbD3gI4Zr3wGdoqhKlA3gxhN5vVfoN1DRcvaNKJlMA6Z88f51n8lM1qCjMwYjXSv8ceRFtJTTinWwoWZ8h9CrwEXZMUmiZaHqrOrY_twYBukJJIpay8mDWaAk9D-GXRngseZiTuiIzxgXmF7qcUqunheLEPXmK-46PdL0ASctU6J9mP6iBCq0X5oX0rbHhdJJIGzSFuJdOnDIBiLA3aLBAnZvfewwBxuFUl80fS9mdYnRBNDYRLaRCAxtEo8FOkunIDxqwPLuEsSSa_Pt26Qj7NRrUNVBPGKnc4BIthUTuDklXy8IdpaTVqwVYOvvJ0a2CIPDo-kKSAJ7ExWsJXVzZV09K4B4NCvWzwvDiJG1EMKjnjLwa8UCN8Q4qJhCBxPPIijwuJHdTniDmcyMwUx6BmKP0ietcuZbnddSIGeHnr7cO8uMMaIajwJ2bdsh5y8katxACLJt6Uq888JllIYQK8_00R-8DD1TCD_twdR7S1zXs6n-nEO8jWZzwQ2pettZ8GkhkpLNcgS80GZGbbEbC7uJw8s38x8qAANC5rAVmkdt1AqAOaa0okxZWkGEOh5MsvXRcQI3DrJ71ks67E2vfXexuFjmr0-pXOWDYRLP2ilsxY42JV12i8hC4AIzUvNTw6aA34jpHL3Mbnp0c4waeRttfFZozbE6BL5pWwDPn6pC0Pjvpd13DuS6nMb0kQHwz1dWmFb-qgKOlx6ZTmnAoWCwHZdhtAkolRD9dHLZnHsroEDLFUa-jCzH55i-ydd5SJldycQUsZTVDNw_dJbQBe7fGXwJ_PIsfu3weP2eh0X_HxMnBHQYJ8a4sSPUr4EakfbATzOd2cyYF-pegI5Fo5V0X4Btatpfk-66dyTnKRMHeDFrsWNZ-XK3yDFvUcZwrUU65DYWt9u6LZQDw7vJtTYhHZLDHtsiAtKSngWCZwxvA6tdsR2OL__TuvKvs8hgrfUjj1c4iyyzkhS81wq2OAP96a0852RTVkCFHE1fB4Y1ql5auK7s-T16rnkRJjxGF3DiET8sImzFZjedQicZSLVB6-xhUxWLtrFS49skfoqSeTK35-u_m1]--></g></svg>